<svg width="24" height="27" viewBox="0 0 24 27" xmlns="http://www.w3.org/2000/svg">
<path d="M23.5089 19.6994L21.8784 17.3538C21.6558 17.0349 21.5361 16.6556 21.5352 16.2668V9.53504C21.5352 7.00619 20.5306 4.58091 18.7424 2.79275C16.9542 1.00458 14.529 0 12.0001 0C9.47127 0 7.04599 1.00458 5.25783 2.79275C3.46966 4.58091 2.46508 7.00619 2.46508 9.53504V16.2668C2.46416 16.6556 2.34438 17.0349 2.12182 17.3538L0.491325 19.6994C0.244444 19.9729 0.082098 20.3121 0.0239202 20.676C-0.0342576 21.0399 0.0142243 21.4128 0.163503 21.7497C0.312782 22.0865 0.556464 22.373 0.865081 22.5743C1.1737 22.7756 1.53403 22.8832 1.90251 22.8841H7.32795C7.54679 23.9618 8.13149 24.9308 8.98298 25.6267C9.83447 26.3227 10.9004 26.7029 12.0001 26.7029C13.0998 26.7029 14.1658 26.3227 15.0172 25.6267C15.8687 24.9308 16.4534 23.9618 16.6723 22.8841H22.0977C22.4662 22.8832 22.8265 22.7756 23.1351 22.5743C23.4438 22.373 23.6874 22.0865 23.8367 21.7497C23.986 21.4128 24.0345 21.0399 23.9763 20.676C23.9181 20.3121 23.7558 19.9729 23.5089 19.6994ZM12.0001 24.7911C11.4099 24.7894 10.8347 24.6053 10.3534 24.2639C9.87196 23.9225 9.50796 23.4405 9.31124 22.8841H14.689C14.4923 23.4405 14.1283 23.9225 13.6469 24.2639C13.1655 24.6053 12.5903 24.7894 12.0001 24.7911ZM1.90251 20.9771C1.94561 20.9371 1.984 20.8923 2.01693 20.8436L3.68556 18.4408C4.1307 17.803 4.37024 17.0445 4.37209 16.2668V9.53504C4.37209 7.51196 5.17575 5.57174 6.60628 4.14121C8.03682 2.71067 9.97704 1.90701 12.0001 1.90701C14.0232 1.90701 15.9634 2.71067 17.3939 4.14121C18.8245 5.57174 19.6281 7.51196 19.6281 9.53504V16.2668C19.63 17.0445 19.8695 17.803 20.3147 18.4408L21.9833 20.8436C22.0162 20.8923 22.0546 20.9371 22.0977 20.9771H1.90251Z"/>
</svg>
