<svg width="26" height="26" viewBox="0 0 26 26" xmlns="http://www.w3.org/2000/svg">
<path fill-rule="evenodd" clip-rule="evenodd" d="M21.3982 7.54169V2.82609C21.3982 1.26552 20.1374 0 18.5827 0C14.6826 0 6.71567 0 2.81556 0C1.26081 0 0 1.26552 0 2.82609V23.1739C0 24.7345 1.26081 26 2.81556 26H18.5827C20.1374 26 21.3982 24.7345 21.3982 23.1739V18.4583C21.3982 18.1463 21.146 17.8931 20.8351 17.8931C20.5243 17.8931 20.272 18.1463 20.272 18.4583V23.1739C20.272 24.1105 19.5158 24.8696 18.5827 24.8696H2.81556C1.88248 24.8696 1.12622 24.1105 1.12622 23.1739C1.12622 18.4447 1.12622 7.55526 1.12622 2.82609C1.12622 1.88952 1.88248 1.13043 2.81556 1.13043H18.5827C19.5158 1.13043 20.272 1.88952 20.272 2.82609V7.54169C20.272 7.85369 20.5243 8.10691 20.8351 8.10691C21.146 8.10691 21.3982 7.85369 21.3982 7.54169Z" />
<path fill-rule="evenodd" clip-rule="evenodd" d="M11.2909 21.8648C11.2239 22.0677 11.2763 22.2915 11.4272 22.443C11.5781 22.5945 11.8011 22.647 12.0032 22.5798C12.0032 22.5798 14.3458 21.7958 15.1296 21.5336C15.3785 21.4505 15.6049 21.3103 15.7902 21.1238L25.505 11.3726C25.822 11.055 25.9999 10.6237 25.9999 10.1738C25.9999 9.72391 25.8214 9.29264 25.505 8.97499C25.291 8.75964 25.0595 8.52734 24.845 8.31256C24.5285 7.99491 24.0989 7.81573 23.6506 7.81573C23.2024 7.81573 22.7727 7.99434 22.4563 8.31256L12.7415 18.0637C12.5557 18.2497 12.416 18.4769 12.3332 18.7267C12.0719 19.5135 11.2909 21.8648 11.2909 21.8648ZM12.7156 21.1498L14.1616 20.6659L13.1976 19.6983L12.7156 21.1498ZM13.7478 18.6521L15.204 20.1137L22.8544 12.4347L21.3982 10.973L13.7478 18.6521ZM23.6506 11.6355L22.1944 10.1738L23.2525 9.11178C23.3578 9.00608 23.5014 8.94617 23.6506 8.94617C23.7999 8.94617 23.9435 9.00608 24.0488 9.11178L24.7087 9.77421C24.814 9.87991 24.8737 10.024 24.8737 10.1738C24.8737 10.3236 24.814 10.4677 24.7087 10.5734L23.6506 11.6355Z" />
<path fill-rule="evenodd" clip-rule="evenodd" d="M3.94177 22.6087H5.068C5.28142 22.6087 5.47626 22.4877 5.57143 22.2961L6.19422 21.0464L6.81702 22.2961C6.91218 22.4877 7.10702 22.6087 7.32044 22.6087H9.57289C9.88373 22.6087 10.136 22.3554 10.136 22.0434C10.136 21.7314 9.88373 21.4782 9.57289 21.4782H7.66845L6.69765 19.5299C6.60248 19.3383 6.40764 19.2173 6.19422 19.2173C5.9808 19.2173 5.78596 19.3383 5.69079 19.5299L4.71999 21.4782H3.94177C3.63094 21.4782 3.37866 21.7314 3.37866 22.0434C3.37866 22.3554 3.63094 22.6087 3.94177 22.6087Z" />
<path fill-rule="evenodd" clip-rule="evenodd" d="M5.06799 5.65225H16.3302C16.6411 5.65225 16.8933 5.39904 16.8933 5.08704C16.8933 4.77504 16.6411 4.52182 16.3302 4.52182H5.06799C4.75716 4.52182 4.50488 4.77504 4.50488 5.08704C4.50488 5.39904 4.75716 5.65225 5.06799 5.65225Z" />
<path fill-rule="evenodd" clip-rule="evenodd" d="M5.06799 9.04349H16.3302C16.6411 9.04349 16.8933 8.79027 16.8933 8.47827C16.8933 8.16627 16.6411 7.91306 16.3302 7.91306H5.06799C4.75716 7.91306 4.50488 8.16627 4.50488 8.47827C4.50488 8.79027 4.75716 9.04349 5.06799 9.04349Z" />
<path fill-rule="evenodd" clip-rule="evenodd" d="M5.06799 12.4348H16.3302C16.6411 12.4348 16.8933 12.1816 16.8933 11.8696C16.8933 11.5576 16.6411 11.3044 16.3302 11.3044H5.06799C4.75716 11.3044 4.50488 11.5576 4.50488 11.8696C4.50488 12.1816 4.75716 12.4348 5.06799 12.4348Z" />
<path fill-rule="evenodd" clip-rule="evenodd" d="M5.06799 15.8261H12.9516C13.2624 15.8261 13.5147 15.5729 13.5147 15.2609C13.5147 14.9489 13.2624 14.6957 12.9516 14.6957H5.06799C4.75716 14.6957 4.50488 14.9489 4.50488 15.2609C4.50488 15.5729 4.75716 15.8261 5.06799 15.8261Z" />
</svg>
