<svg width="26" height="26" viewBox="0 0 26 26" xmlns="http://www.w3.org/2000/svg">
<path d="M10.9695 18.5859C11.2498 18.5859 11.4773 18.3584 11.4773 18.0781C11.4773 17.7978 11.2498 17.5703 10.9695 17.5703C10.6892 17.5703 10.4617 17.7978 10.4617 18.0781C10.4617 18.3584 10.6892 18.5859 10.9695 18.5859Z" fill="white"/>
<path d="M0.148784 19.7575L6.24296 25.8512C6.44134 26.0496 6.76271 26.0496 6.96109 25.8512L10.3129 22.4997C10.5113 22.3013 10.5113 21.9799 10.3129 21.7816L10.1641 21.6328H17.4847C18.1276 21.6328 18.7412 21.3918 19.2143 20.9526L25.3753 15.1788C25.9651 14.6311 26.1605 13.7611 25.8614 13.0141C25.6451 12.4733 25.2036 12.0596 24.6501 11.8788C24.0964 11.6977 23.4959 11.7711 23.002 12.0798C22.9988 12.0818 21.6341 12.9772 21.6341 12.9772C21.6248 10.2245 19.961 7.28909 17.6707 5.96759C17.8015 5.81743 17.9042 5.63969 17.9697 5.44073C18.2318 4.64351 17.7961 3.78062 16.9976 3.517C16.9726 3.50867 16.9476 3.50133 16.9227 3.49359L18.23 1.14536C18.3051 1.01027 18.3149 0.848206 18.256 0.705383C18.1972 0.562363 18.0766 0.453857 17.928 0.410812C16.9907 0.13826 16.0165 0 15.0323 0C14.0484 0 13.0739 0.13826 12.1366 0.410614C11.988 0.453857 11.8674 0.562164 11.8085 0.705185C11.7497 0.848206 11.7593 1.01027 11.8346 1.14536L13.142 3.49359C13.1166 3.50153 13.0912 3.50906 13.0658 3.5174C12.2685 3.78062 11.8331 4.64331 12.0951 5.44113C12.1606 5.63969 12.2641 5.81683 12.3953 5.96719C10.0709 7.30833 8.43028 10.2739 8.43028 13C8.43028 13.0744 8.43207 13.1478 8.43445 13.2206C7.52488 13.4687 6.6792 13.9208 5.96801 14.5435L4.42463 15.8937L4.21871 15.6878C4.02033 15.4895 3.69896 15.4895 3.50058 15.6878L0.148784 19.0394C-0.0495946 19.2378 -0.0495946 19.5591 0.148784 19.7575ZM13.0432 1.22807C13.6938 1.08684 14.3604 1.01562 15.0323 1.01562C15.7042 1.01562 16.3708 1.08684 17.0216 1.22807L15.8899 3.26071C15.3194 3.18117 14.7449 3.18117 14.1749 3.26071L13.0432 1.22807ZM13.3828 4.48224C14.4249 4.14125 15.561 4.11546 16.6804 4.48184C16.9469 4.56972 17.0923 4.85774 17.0048 5.12355C16.9389 5.3237 16.7604 5.45958 16.5535 5.47168C15.5521 5.15331 14.512 5.15271 13.5109 5.47069C13.5109 5.47069 13.5109 5.47069 13.5107 5.47069C13.3021 5.4576 13.1249 5.32112 13.0598 5.12375C12.9723 4.85754 13.1178 4.56952 13.3828 4.48224ZM13.6637 6.49068C14.5443 6.17349 15.4566 6.16595 16.3394 6.46925C18.6989 7.28056 20.6186 10.2102 20.6186 13C20.6186 13.2365 20.6038 13.4618 20.5744 13.6725L18.1334 15.2738C17.7554 14.8057 17.1827 14.5234 16.5559 14.5234H15.5402V13.9283C16.1313 13.7187 16.5559 13.1541 16.5559 12.4922C16.5559 11.6521 15.8724 10.9688 15.0323 10.9688C14.7524 10.9688 14.5245 10.741 14.5245 10.4609C14.5245 10.1808 14.7524 9.95312 15.0323 9.95312C15.2122 9.95312 15.4021 10.045 15.5816 10.2185C15.7832 10.4135 16.1047 10.4082 16.2997 10.2068C16.4948 10.0053 16.4894 9.68375 16.2878 9.48875C16.0301 9.23921 15.7723 9.09818 15.5402 9.02121V8.42969C15.5402 8.1492 15.3128 7.92188 15.0323 7.92188C14.7518 7.92188 14.5245 8.1492 14.5245 8.42969V9.02478C13.9335 9.23445 13.5088 9.799 13.5088 10.4609C13.5088 11.301 14.1922 11.9844 15.0323 11.9844C15.3124 11.9844 15.5402 12.2121 15.5402 12.4922C15.5402 12.7723 15.3124 13 15.0323 13C14.8153 13 14.5812 12.8635 14.3729 12.6158C14.1924 12.4011 13.872 12.3734 13.6573 12.5539C13.4427 12.7344 13.4149 13.0547 13.5955 13.2694C13.8668 13.5923 14.1862 13.8173 14.5245 13.9307V14.5234H14.3554C14.1059 14.5234 13.9938 14.3608 13.818 14.2471C12.745 13.4429 11.4159 13 10.0752 13C9.86555 13 9.65546 13.0109 9.44637 13.0321C9.44637 13.0214 9.44598 13.0109 9.44598 13C9.44598 10.2493 11.3381 7.32936 13.6637 6.49068ZM6.63694 15.3076C7.59114 14.4721 8.81732 14.0156 10.0752 14.0156C11.1977 14.0156 12.3104 14.3864 13.2082 15.0594C13.3378 15.1352 13.6984 15.5391 14.3552 15.5391H16.5559C17.1339 15.5391 17.5715 16.009 17.5715 16.5547C17.5715 17.1147 17.1159 17.5703 16.5559 17.5703H13.0009C12.7204 17.5703 12.4931 17.7976 12.4931 18.0781C12.4931 18.3586 12.7204 18.5859 13.0009 18.5859H16.5559C17.6759 18.5859 18.5872 17.6747 18.5872 16.5547C18.5872 16.4382 18.5769 16.3234 18.5575 16.2103L23.5445 12.9385C23.7818 12.7919 24.0696 12.7576 24.3347 12.8441C24.6013 12.9314 24.8141 13.1307 24.9183 13.3914C25.0649 13.7572 24.9728 14.1668 24.6824 14.4364L18.5216 20.2099C18.2387 20.4726 17.8705 20.6172 17.4847 20.6172H9.14841L5.14454 16.6134L6.63694 15.3076ZM3.85965 16.765L9.2357 22.1406L6.60203 24.7741L1.22598 19.3984L3.85965 16.765Z" fill="white"/>
</svg>
