<svg width="26" height="25" viewBox="0 0 26 25" xmlns="http://www.w3.org/2000/svg">
<path d="M11.0221 9.50515C10.5633 9.46922 10.2014 9.5924 9.93626 9.80283C8.83509 9.21261 4.76181 7.02109 4.76181 7.02109C4.2826 6.77473 3.91044 7.48813 4.37946 7.74475L9.47234 10.4803C9.28881 11.0346 9.42136 11.6915 9.87508 12.0919C9.22254 12.8207 7.68805 14.5246 7.68805 14.5246C7.33629 14.9249 7.92765 15.4741 8.29471 15.0789L10.6653 12.4409C12.5923 12.6513 12.9543 9.7823 11.0221 9.50515ZM10.8743 11.6351C10.0025 11.6556 9.96175 10.3417 10.8488 10.3161C11.6951 10.3417 11.7206 11.5735 10.8743 11.6351ZM10.4359 4.0905V3.15128C10.4461 2.61238 11.2413 2.61238 11.2515 3.15128V4.0905C11.2464 4.63453 10.4461 4.63453 10.4359 4.0905ZM3.96652 11.4247H3.03359C2.4983 11.4144 2.4983 10.6137 3.03359 10.6035H3.96652C4.50691 10.6137 4.50691 11.4195 3.96652 11.4247ZM22.0848 14.4528C22.7169 14.0986 22.8189 13.0824 22.1357 12.677C22.3957 12.2253 22.7577 11.594 22.7577 11.594C23.293 10.6394 22.5283 9.68478 21.6667 9.65912C21.0142 4.23421 16.3546 -0.00512771 10.8437 4.65518e-06C-2.27341 0.374668 -3.96594 18.5894 8.38137 21.6483C8.29981 22.0538 8.39667 22.5003 8.68215 22.8134C8.02961 23.537 8.34569 24.9587 9.63038 24.9998H16.2374C16.5127 25.0049 16.7625 24.9228 16.9613 24.7791C17.7209 24.9279 18.6334 24.9998 19.7499 24.9998C22.6608 24.9998 26 24.5481 26 21.0068C26 19.1181 23.9812 16.5006 22.0848 14.4528ZM9.62528 20.6321C9.03901 20.6424 8.97784 19.698 9.62528 19.6826H16.2323C16.8695 19.6878 16.8287 20.6424 16.2323 20.6321H9.62528ZM9.62528 18.8563C8.98803 18.8409 9.02372 17.9068 9.62528 17.9068C9.79861 17.912 14.5346 17.9068 16.2323 17.9068C16.8542 17.912 16.8389 18.8512 16.2323 18.8563H9.62528ZM15.228 17.0857C13.3774 17.0857 9.63038 17.0857 9.63038 17.0857C8.34569 17.1267 8.02961 18.5484 8.68215 19.272C8.66176 19.2926 8.64647 19.3182 8.62608 19.3439C-0.851072 16.6853 0.612049 2.61238 10.8437 2.3147C15.0903 2.30444 18.6589 5.43005 19.342 9.56674C19.0922 9.64373 18.873 9.79256 18.7201 10.0133C17.6444 9.01758 16.0131 10.3212 16.737 11.5992L17.3589 12.677C16.7472 13.067 16.7064 14.0935 17.415 14.4476C16.5483 15.3868 15.8142 16.2696 15.228 17.0857ZM20.1373 10.5316C20.224 10.6548 20.2087 10.819 20.2138 10.9627V12.5179C19.4746 12.5179 18.7711 12.5179 18.2103 12.5179L17.4456 11.1886C17.1499 10.6548 17.935 10.1929 18.246 10.7215L18.5213 11.1988C18.613 11.3579 18.8016 11.4401 18.9801 11.3887C19.2656 11.3117 19.3013 11.0449 19.2809 10.7882C19.2758 10.3263 19.8926 10.1467 20.1373 10.5316ZM17.9095 13.7599C17.5985 13.7445 17.6546 13.2826 17.9707 13.339H21.5851C21.8553 13.339 21.8604 13.7599 21.5851 13.7599C21.5851 13.7599 21.4577 13.7599 21.2538 13.7599C21.0855 13.7599 17.9758 13.7599 17.9095 13.7599ZM22.0491 11.1834L21.2844 12.5127C21.0295 12.5127 20.6369 12.5127 20.2087 12.5127C20.2444 12.4511 20.9938 11.1424 21.2436 10.7164C21.5189 10.2237 22.3549 10.6086 22.0491 11.1834ZM10.8437 0.826316C15.9927 0.826316 20.3463 4.8039 20.8714 9.92601C20.8357 9.95167 20.8001 9.98246 20.7695 10.0133C20.6216 9.79256 20.4024 9.65399 20.1628 9.56674C19.4797 4.94248 15.5236 1.49352 10.8437 1.49352C-0.0914729 1.70908 -2.14596 17.0292 8.33549 20.124C8.3253 20.3909 8.40686 20.6424 8.54451 20.8682C-3.00242 17.8606 -1.12636 1.12913 10.8437 0.826316ZM9.62528 22.4079C8.96764 22.3925 9.05431 21.443 9.62528 21.4533H16.2323C16.8542 21.4584 16.8389 22.4028 16.2323 22.4079H9.62528ZM9.62528 24.1786C9.00333 24.1683 9.00843 23.2394 9.62528 23.2291H16.2323C16.6503 23.2188 16.8491 23.7629 16.5636 24.0503C16.4872 24.1273 16.3801 24.1786 16.2323 24.1837C16.2374 24.1786 9.62528 24.1786 9.62528 24.1786ZM17.4813 24.04C17.5883 23.6089 17.4915 23.1573 17.1754 22.8185C17.6291 22.3463 17.6342 21.52 17.1754 21.0427C17.6291 20.5705 17.6342 19.7494 17.1754 19.2669C17.9452 18.4971 17.3487 17.0549 16.2425 17.0857C16.8389 16.3055 17.5679 15.469 18.4091 14.5862H21.0804C27.5345 21.1351 26.3671 25.0152 17.4813 24.04ZM20.2648 19.2823C21.9012 19.2977 22.2479 21.597 20.7134 22.1102V22.3001C20.7032 22.839 19.9079 22.839 19.8977 22.3001V22.1308C19.2809 21.9665 18.822 21.402 18.822 20.7296C18.8322 20.1907 19.6275 20.1907 19.6377 20.7296C19.6377 21.0786 19.9181 21.3609 20.2648 21.3609C21.0906 21.3404 21.0906 20.1189 20.2648 20.0984C18.5366 20.047 18.3224 17.6297 19.8977 17.2499V17.0805C19.9079 16.5416 20.7032 16.5416 20.7134 17.0805V17.2756C21.2436 17.4398 21.6871 17.8966 21.7075 18.6459C21.6973 19.1848 20.902 19.1848 20.8918 18.6459C20.8918 18.2969 20.6114 18.0146 20.2648 18.0146C19.4389 18.0403 19.4389 19.2618 20.2648 19.2823Z" fill="white"/>
</svg>
