<svg width="26" height="26" viewBox="0 0 26 26" xmlns="http://www.w3.org/2000/svg">
<path d="M24.7 25.1338V9.10889C24.7 8.8697 24.506 8.67578 24.2667 8.67578H19.9333C19.694 8.67578 19.5 8.8697 19.5 9.10889V25.1338H18.6333V15.1724C18.6333 14.9332 18.4393 14.7393 18.2 14.7393H13.8667C13.6274 14.7393 13.4333 14.9332 13.4333 15.1724V25.1338H12.5667V10.8413C12.5667 10.6021 12.3726 10.4082 12.1333 10.4082H7.8C7.56069 10.4082 7.36667 10.6021 7.36667 10.8413V25.1338H6.5V16.9048C6.5 16.6656 6.30597 16.4717 6.06667 16.4717H1.73333C1.49402 16.4717 1.3 16.6656 1.3 16.9048V25.1338H0V26H26V25.1338H24.7ZM5.63333 25.1338H2.16667V17.3379H5.63333V25.1338ZM11.7 25.1338H8.23333V11.2744H11.7V25.1338ZM17.7667 25.1338H14.3V15.6055H17.7667V25.1338ZM23.8333 25.1338H20.3667V9.54199H23.8333V25.1338Z" />
<path d="M2.70499 11.7816C3.05946 12.0158 3.47502 12.1407 3.89996 12.1406C5.09656 12.1406 6.06657 11.171 6.06652 9.97497C6.06652 9.55042 5.94161 9.13518 5.70739 8.78101L8.77453 5.71505C9.12607 5.95017 9.53931 6.07615 9.96229 6.07713C10.0899 6.07718 10.2171 6.06603 10.3428 6.04378C10.755 5.97156 11.1372 5.78067 11.4426 5.4946L14.0135 7.46999C13.5844 8.58643 14.1421 9.83919 15.2591 10.2681C16.3761 10.697 17.6295 10.1396 18.0586 9.02317C18.3103 8.36842 18.2291 7.63241 17.8407 7.04815L20.907 3.98349C21.9078 4.6456 23.2562 4.37139 23.9186 3.37108C24.5811 2.37077 24.3067 1.0231 23.3059 0.361048C22.305 -0.301063 20.9567 -0.0268529 20.2943 0.97346C19.8129 1.70027 19.8129 2.64427 20.2943 3.37108L17.228 6.43574C16.3692 5.86837 15.2295 5.9833 14.5015 6.71076C14.4932 6.71899 14.4885 6.72852 14.4807 6.73631L11.947 4.78994C12.4336 3.69732 11.942 2.41727 10.8488 1.93084C9.75559 1.44441 8.47488 1.93582 7.98819 3.02844C7.68719 3.70425 7.75213 4.48692 8.16049 5.10388L5.09466 8.16854C4.09642 7.50897 2.75228 7.78313 2.09237 8.78084C1.43251 9.77856 1.70675 11.122 2.70499 11.7816ZM22.1 0.879855C22.8179 0.879855 23.4 1.46157 23.4 2.17917C23.4 2.89678 22.8179 3.47849 22.1 3.47849C21.382 3.47849 20.8 2.89678 20.8 2.17917C20.8 1.46157 21.382 0.879855 22.1 0.879855ZM15.1136 7.3242C15.3575 7.08031 15.6883 6.94328 16.0333 6.94334C16.7513 6.94323 17.3333 7.52489 17.3335 8.24249C17.3335 8.5873 17.1964 8.91798 16.9524 9.16171C16.4378 9.65193 15.6288 9.65193 15.1142 9.16171C14.6063 8.65443 14.6061 7.83175 15.1136 7.3242ZM8.90182 3.16638L8.90193 3.16622C9.09899 2.88329 9.40102 2.69083 9.74086 2.63177C9.81631 2.61883 9.89269 2.61233 9.96923 2.61228C10.2352 2.61255 10.4947 2.69468 10.7124 2.84746C11.3005 3.25912 11.4434 4.0693 11.0315 4.65708C10.6196 5.24486 9.809 5.38762 9.22091 4.97601C8.63283 4.56434 8.48994 3.75416 8.90182 3.16638ZM2.98027 9.05662C2.98048 9.05641 2.98064 9.05625 2.98086 9.05603C3.48873 8.5487 4.3119 8.54886 4.81949 9.05646C5.32709 9.56406 5.32693 10.3868 4.81906 10.8941C4.30448 11.3844 3.49544 11.3844 2.98086 10.8941C2.47299 10.3869 2.47278 9.56417 2.98027 9.05662Z" />
</svg>
