<svg width="20" height="20" viewBox="0 0 20 20" xmlns="http://www.w3.org/2000/svg">
<path d="M14.9297 19.9997C15.2253 20.0062 15.5155 19.9205 15.7601 19.7544C16.0047 19.5883 16.1915 19.35 16.2945 19.0728C16.3975 18.7957 16.4115 18.4934 16.3347 18.2078C16.2579 17.9223 16.0941 17.6679 15.8659 17.4799L7.16162 10.023L15.8659 2.56877C16.0237 2.45278 16.1559 2.30553 16.2541 2.13611C16.3524 1.96669 16.4146 1.77875 16.4368 1.58418C16.4591 1.3896 16.4409 1.19257 16.3835 1.00533C16.3261 0.8181 16.2306 0.644686 16.1031 0.496057C15.9755 0.347429 15.8187 0.226868 15.6423 0.141664C15.466 0.0564612 15.274 0.00860585 15.0783 0.00105464C14.8826 -0.00649466 14.6874 0.0263308 14.5051 0.0976923C14.3227 0.169056 14.157 0.277303 14.0184 0.415663L4.05274 8.94226C3.89625 9.07582 3.77058 9.24158 3.6844 9.4284C3.59823 9.61523 3.55361 9.81857 3.55361 10.0243C3.55361 10.23 3.59823 10.4334 3.6844 10.6202C3.77058 10.807 3.89625 10.973 4.05274 11.1065L14.0184 19.6413C14.2701 19.8649 14.593 19.9917 14.9297 19.9997Z" />
</svg>
