<svg width="20" height="20" viewBox="0 0 20 20" xmlns="http://www.w3.org/2000/svg">
<path d="M5.0701 19.9997C4.7745 20.0062 4.48423 19.9205 4.23963 19.7544C3.99502 19.5883 3.80825 19.35 3.70527 19.0728C3.6023 18.7957 3.58823 18.4934 3.66504 18.2078C3.74184 17.9223 3.9057 17.6679 4.13382 17.4799L12.8381 10.023L4.13382 2.56877C3.97602 2.45279 3.84386 2.30554 3.74562 2.13611C3.64739 1.96669 3.58519 1.77875 3.56293 1.58418C3.54067 1.3896 3.55883 1.19257 3.61626 1.00534C3.67369 0.818104 3.76916 0.64469 3.89669 0.496061C4.02423 0.347433 4.18107 0.226872 4.35741 0.141668C4.53375 0.0564652 4.72578 0.00860987 4.92148 0.0010587C5.11718 -0.00649057 5.31233 0.0263349 5.49471 0.0976965C5.67709 0.16906 5.84277 0.277308 5.98137 0.415667L15.947 8.94227C16.1035 9.07582 16.2292 9.24159 16.3154 9.42841C16.4015 9.61523 16.4461 9.81858 16.4461 10.0243C16.4461 10.2301 16.4015 10.4334 16.3154 10.6202C16.2292 10.807 16.1035 10.973 15.947 11.1065L5.98137 19.6413C5.72962 19.8649 5.40672 19.9917 5.0701 19.9997Z" />
</svg>
