<svg width="26" height="26" viewBox="0 0 26 26" xmlns="http://www.w3.org/2000/svg">
<path d="M10.4642 20.9174C12.7881 20.9175 15.0456 20.1421 16.879 18.7141L23.7958 25.631C24.3125 26.13 25.1359 26.1157 25.6349 25.599C26.1217 25.0949 26.1217 24.2958 25.6349 23.7919L18.7181 16.875C22.2615 12.3136 21.4364 5.74328 16.875 2.1998C12.3135 -1.34369 5.74329 -0.518533 2.1998 4.04289C-1.34369 8.60432 -0.518533 15.1746 4.04289 18.7181C5.87928 20.1447 8.13875 20.9186 10.4642 20.9174ZM4.90658 4.90258C7.976 1.83311 12.9525 1.83305 16.022 4.90247C19.0915 7.97189 19.0915 12.9484 16.0221 16.0179C12.9527 19.0873 7.97617 19.0874 4.90669 16.018C4.90664 16.0179 4.90664 16.0179 4.90658 16.0179C1.83716 12.9708 1.81908 8.01245 4.86613 4.94303C4.8796 4.92951 4.89306 4.91605 4.90658 4.90258Z" fill="white"/>
</svg>
