<svg width="26" height="22" viewBox="0 0 26 22" xmlns="http://www.w3.org/2000/svg">
<path fill-rule="evenodd" clip-rule="evenodd" d="M8.46459 0C5.65805 0 3.37891 2.33151 3.37891 5.20255C3.37891 8.07359 5.65805 10.4051 8.46459 10.4051C11.2711 10.4051 13.5503 8.07359 13.5503 5.20255C13.5503 2.33151 11.2711 0 8.46459 0ZM8.46459 1.15612C10.648 1.15612 12.4201 2.96892 12.4201 5.20255C12.4201 7.43618 10.648 9.24898 8.46459 9.24898C6.28114 9.24898 4.50906 7.43618 4.50906 5.20255C4.50906 2.96892 6.28114 1.15612 8.46459 1.15612Z" fill="white"/>
<path fill-rule="evenodd" clip-rule="evenodd" d="M19.7827 2.34103C17.5993 2.34103 15.8262 4.15487 15.8262 6.38847C15.8262 8.62208 17.5993 10.4359 19.7827 10.4359C21.9661 10.4359 23.7392 8.62208 23.7392 6.38847C23.7392 4.15487 21.9661 2.34103 19.7827 2.34103ZM19.7827 3.49745C21.3427 3.49745 22.6088 4.79263 22.6088 6.38847C22.6088 7.98432 21.3427 9.2795 19.7827 9.2795C18.2227 9.2795 16.9566 7.98432 16.9566 6.38847C16.9566 4.79263 18.2227 3.49745 19.7827 3.49745Z" fill="white"/>
<path fill-rule="evenodd" clip-rule="evenodd" d="M14.9274 13.2518C15.856 12.2313 17.1809 11.5923 18.6522 11.5923H20.913C23.7227 11.5923 26 13.9219 26 16.7962V20.2654C26 20.7257 25.8214 21.1669 25.5032 21.4918C25.1855 21.8173 24.7543 22 24.3043 22C22.1384 22 4.60878 22 1.69565 22C0.759087 22 0 21.2235 0 20.2654V17.9526C0 14.44 2.7837 11.5923 6.21739 11.5923H10.7391C12.3528 11.5923 13.8224 12.2209 14.9274 13.2518ZM16.8599 20.8436H24.3043C24.4541 20.8436 24.5983 20.7829 24.704 20.6742C24.8102 20.5661 24.8696 20.4187 24.8696 20.2654V16.7962C24.8696 14.5609 23.0982 12.7488 20.913 12.7488H18.6522C17.4748 12.7488 16.4179 13.2749 15.6933 14.1093C16.4863 15.1766 16.9565 16.5088 16.9565 17.9526V20.2654C16.9565 20.4684 16.9226 20.6627 16.8599 20.8436ZM15.8261 17.9526V20.2654C15.8261 20.5846 15.5729 20.8436 15.2609 20.8436H1.69565C1.38365 20.8436 1.13043 20.5846 1.13043 20.2654V17.9526C1.13043 15.0783 3.4077 12.7488 6.21739 12.7488H10.7391C13.5488 12.7488 15.8261 15.0783 15.8261 17.9526Z" fill="white"/>
</svg>
