<svg width="26" height="26" viewBox="0 0 26 26" xmlns="http://www.w3.org/2000/svg">
<path d="M17.3333 12.5185H8.66661C8.28352 12.5185 7.91612 12.3663 7.64524 12.0954C7.37435 11.8246 7.22217 11.4572 7.22217 11.0741C7.22217 7.87895 9.16639 6.25925 12.9999 6.25925C16.8335 6.25925 18.7777 7.87895 18.7777 11.0741C18.7777 11.4572 18.6255 11.8246 18.3547 12.0954C18.0838 12.3663 17.7164 12.5185 17.3333 12.5185ZM12.9999 7.22221C9.71528 7.22221 8.18513 8.44614 8.18513 11.0741C8.18513 11.2018 8.23586 11.3242 8.32615 11.4145C8.41645 11.5048 8.53892 11.5555 8.66661 11.5555H17.3333C17.461 11.5555 17.5834 11.5048 17.6737 11.4145C17.764 11.3242 17.8148 11.2018 17.8148 11.0741C17.8148 8.44614 16.2846 7.22221 12.9999 7.22221Z" fill="white"/>
<path d="M13 5.77778C12.4286 5.77778 11.8701 5.60835 11.395 5.29091C10.9199 4.97348 10.5496 4.52229 10.331 3.99442C10.1123 3.46654 10.0551 2.88569 10.1666 2.3253C10.2781 1.76491 10.5532 1.25016 10.9572 0.846137C11.3612 0.442119 11.876 0.166979 12.4364 0.0555105C12.9968 -0.0559579 13.5776 0.00125172 14.1055 0.219905C14.6334 0.438558 15.0846 0.808834 15.402 1.28391C15.7194 1.75898 15.8889 2.31752 15.8889 2.88889C15.8881 3.65484 15.5835 4.38919 15.0419 4.9308C14.5003 5.4724 13.7659 5.77701 13 5.77778ZM13 0.962964C12.6191 0.962964 12.2467 1.07592 11.93 1.28754C11.6133 1.49916 11.3664 1.79995 11.2207 2.15187C11.0749 2.50379 11.0367 2.89103 11.1111 3.26462C11.1854 3.63821 11.3688 3.98138 11.6381 4.25073C11.9075 4.52007 12.2507 4.7035 12.6242 4.77781C12.9978 4.85212 13.3851 4.81398 13.737 4.66821C14.0889 4.52244 14.3897 4.27559 14.6013 3.95888C14.8129 3.64216 14.9259 3.2698 14.9259 2.88889C14.9259 2.3781 14.723 1.88824 14.3618 1.52705C14.0006 1.16587 13.5108 0.962964 13 0.962964Z" fill="white"/>
<path d="M24.5554 26H15.8888C15.5057 26 15.1383 25.8478 14.8674 25.5769C14.5965 25.3061 14.4443 24.9387 14.4443 24.5556C14.4443 21.3605 16.3886 19.7408 20.2221 19.7408C24.0557 19.7408 25.9999 21.3605 25.9999 24.5556C25.9999 24.9387 25.8477 25.3061 25.5768 25.5769C25.3059 25.8478 24.9385 26 24.5554 26ZM20.2221 20.7037C16.9374 20.7037 15.4073 21.9276 15.4073 24.5556C15.4073 24.6833 15.458 24.8057 15.5483 24.896C15.6386 24.9863 15.7611 25.037 15.8888 25.037H24.5554C24.6831 25.037 24.8056 24.9863 24.8959 24.896C24.9862 24.8057 25.0369 24.6833 25.0369 24.5556C25.0369 21.9276 23.5068 20.7037 20.2221 20.7037Z" fill="white"/>
<path d="M20.2221 19.2593C19.6508 19.2593 19.0922 19.0898 18.6172 18.7724C18.1421 18.455 17.7718 18.0038 17.5532 17.4759C17.3345 16.948 17.2773 16.3672 17.3888 15.8068C17.5002 15.2464 17.7754 14.7316 18.1794 14.3276C18.5834 13.9236 19.0982 13.6485 19.6585 13.537C20.2189 13.4255 20.7998 13.4827 21.3277 13.7014C21.8555 13.92 22.3067 14.2903 22.6242 14.7654C22.9416 15.2405 23.111 15.799 23.111 16.3704C23.1103 17.1363 22.8057 17.8707 22.2641 18.4123C21.7224 18.9539 20.9881 19.2585 20.2221 19.2593ZM20.2221 14.4444C19.8412 14.4444 19.4689 14.5574 19.1522 14.769C18.8354 14.9806 18.5886 15.2814 18.4428 15.6333C18.297 15.9853 18.2589 16.3725 18.3332 16.7461C18.4075 17.1197 18.591 17.4629 18.8603 17.7322C19.1297 18.0015 19.4728 18.185 19.8464 18.2593C20.22 18.3336 20.6072 18.2955 20.9592 18.1497C21.3111 18.0039 21.6119 17.7571 21.8235 17.4404C22.0351 17.1236 22.1481 16.7513 22.1481 16.3704C22.1481 15.8596 21.9452 15.3697 21.584 15.0085C21.2228 14.6474 20.7329 14.4444 20.2221 14.4444Z" fill="white"/>
<path d="M10.1111 26H1.44444C1.06135 26 0.693954 25.8478 0.423068 25.5769C0.152182 25.3061 0 24.9387 0 24.5556C0 21.3605 1.94422 19.7408 5.77778 19.7408C9.61133 19.7408 11.5556 21.3605 11.5556 24.5556C11.5556 24.9387 11.4034 25.3061 11.1325 25.5769C10.8616 25.8478 10.4942 26 10.1111 26ZM5.77778 20.7037C2.49311 20.7037 0.962963 21.9276 0.962963 24.5556C0.962963 24.6833 1.01369 24.8057 1.10399 24.896C1.19428 24.9863 1.31675 25.037 1.44444 25.037H10.1111C10.2388 25.037 10.3613 24.9863 10.4516 24.896C10.5419 24.8057 10.5926 24.6833 10.5926 24.5556C10.5926 21.9276 9.06244 20.7037 5.77778 20.7037Z" fill="white"/>
<path d="M5.77781 19.2593C5.20644 19.2593 4.6479 19.0898 4.17283 18.7724C3.69775 18.455 3.32747 18.0038 3.10882 17.4759C2.89017 16.948 2.83296 16.3672 2.94443 15.8068C3.05589 15.2464 3.33103 14.7316 3.73505 14.3276C4.13907 13.9236 4.65382 13.6485 5.21421 13.537C5.7746 13.4255 6.35546 13.4827 6.88334 13.7014C7.41121 13.92 7.86239 14.2903 8.17983 14.7654C8.49726 15.2405 8.66669 15.799 8.66669 16.3704C8.66593 17.1363 8.36132 17.8707 7.81971 18.4123C7.27811 18.9539 6.54375 19.2585 5.77781 19.2593ZM5.77781 14.4444C5.39689 14.4444 5.02454 14.5574 4.70782 14.769C4.3911 14.9806 4.14425 15.2814 3.99848 15.6333C3.85271 15.9853 3.81457 16.3725 3.88889 16.7461C3.9632 17.1197 4.14662 17.4629 4.41597 17.7322C4.68532 18.0015 5.02848 18.185 5.40208 18.2593C5.77567 18.3336 6.16291 18.2955 6.51483 18.1497C6.86674 18.0039 7.16753 17.7571 7.37915 17.4404C7.59078 17.1236 7.70373 16.7513 7.70373 16.3704C7.70373 15.8596 7.50082 15.3697 7.13964 15.0085C6.77846 14.6474 6.28859 14.4444 5.77781 14.4444Z" fill="white"/>
<path d="M13 17.3333C12.8723 17.3333 12.7499 17.2826 12.6596 17.1923C12.5693 17.102 12.5186 16.9795 12.5186 16.8518V13.963C12.5186 13.8353 12.5693 13.7128 12.6596 13.6225C12.7499 13.5322 12.8723 13.4815 13 13.4815C13.1277 13.4815 13.2502 13.5322 13.3405 13.6225C13.4308 13.7128 13.4815 13.8353 13.4815 13.963V16.8518C13.4815 16.9795 13.4308 17.102 13.3405 17.1923C13.2502 17.2826 13.1277 17.3333 13 17.3333Z" fill="white"/>
<path d="M14.9259 19.2592C14.7982 19.2592 14.6758 19.2085 14.5855 19.1182L12.6596 17.1922C12.5719 17.1014 12.5233 16.9798 12.5244 16.8535C12.5255 16.7273 12.5762 16.6065 12.6654 16.5173C12.7547 16.428 12.8755 16.3774 13.0017 16.3763C13.128 16.3752 13.2496 16.4237 13.3404 16.5114L15.2663 18.4373C15.3336 18.5047 15.3795 18.5905 15.398 18.6838C15.4166 18.7772 15.4071 18.874 15.3706 18.962C15.3342 19.05 15.2725 19.1251 15.1933 19.178C15.1142 19.231 15.0211 19.2592 14.9259 19.2592Z" fill="white"/>
<path d="M11.0742 19.2592C10.9789 19.2592 10.8859 19.231 10.8067 19.178C10.7275 19.1251 10.6659 19.05 10.6294 18.962C10.593 18.874 10.5834 18.7772 10.602 18.6838C10.6206 18.5905 10.6664 18.5047 10.7337 18.4373L12.6597 16.5114C12.7505 16.4237 12.8721 16.3752 12.9983 16.3763C13.1246 16.3774 13.2454 16.428 13.3346 16.5173C13.4239 16.6065 13.4745 16.7273 13.4756 16.8535C13.4767 16.9798 13.4282 17.1014 13.3405 17.1922L11.4146 19.1182C11.3243 19.2085 11.2018 19.2592 11.0742 19.2592Z" fill="white"/>
</svg>
