<svg width="26" height="26" viewBox="0 0 26 26" xmlns="http://www.w3.org/2000/svg">
<path d="M7.08858 14.1772C10.9988 14.1772 14.1772 10.9988 14.1772 7.08858C14.1772 3.17835 10.9988 0 7.08858 0C3.17835 0 0 3.17835 0 7.08858C0 10.9988 3.17835 14.1772 7.08858 14.1772ZM3.48031 12.1862C3.59803 10.2976 5.16929 8.79291 7.08858 8.79291C9.00787 8.79291 10.5791 10.2976 10.6969 12.1862C9.67835 12.913 8.43465 13.3429 7.08858 13.3429C5.74252 13.3429 4.49882 12.9079 3.48031 12.1862ZM5.48661 5.6811C5.48661 4.80079 6.20315 4.07913 7.08858 4.07913C7.97402 4.07913 8.69055 4.79567 8.69055 5.6811C8.69055 6.56142 7.97402 7.28307 7.08858 7.28307C6.20315 7.28307 5.48661 6.56142 5.48661 5.6811ZM7.08858 0.83937C10.5331 0.83937 13.3378 3.64409 13.3378 7.08858C13.3378 8.83386 12.6161 10.4102 11.4594 11.5465C11.1012 9.72953 9.63228 8.30669 7.78976 8.01496C8.79291 7.71299 9.5248 6.7815 9.5248 5.6811C9.5248 4.33504 8.42953 3.23976 7.08346 3.23976C5.7374 3.23976 4.64213 4.33504 4.64213 5.6811C4.64213 6.7815 5.37402 7.71299 6.37717 8.01496C4.53465 8.30669 3.06575 9.72953 2.70748 11.5465C1.55079 10.4102 0.829134 8.83386 0.829134 7.08858C0.83937 3.64409 3.64409 0.83937 7.08858 0.83937Z" fill="white"/>
<path d="M18.9113 11.8228C15.0011 11.8228 11.8228 15.0012 11.8228 18.9114C11.8228 22.8217 15.0011 26 18.9113 26C22.8216 26 25.9999 22.8217 25.9999 18.9114C25.9999 15.0012 22.8216 11.8228 18.9113 11.8228ZM15.3031 24.0039C15.4208 22.1154 16.992 20.6106 18.9113 20.6106C20.8306 20.6106 22.4019 22.1154 22.5196 24.0039C21.5011 24.7307 20.2574 25.1606 18.9113 25.1606C17.5653 25.1606 16.3216 24.7307 15.3031 24.0039ZM18.9113 19.1008C18.031 19.1008 17.3094 18.3843 17.3094 17.4988C17.3094 16.6185 18.0259 15.8969 18.9113 15.8969C19.7968 15.8969 20.5133 16.6134 20.5133 17.4988C20.5133 18.3843 19.7917 19.1008 18.9113 19.1008ZM23.2822 23.3693C22.9239 21.5524 21.455 20.1295 19.6125 19.8378C20.6157 19.5358 21.3476 18.6043 21.3476 17.5039C21.3476 16.1579 20.2523 15.0626 18.9062 15.0626C17.5602 15.0626 16.4649 16.1579 16.4649 17.5039C16.4649 18.6043 17.1968 19.5358 18.1999 19.8378C16.3574 20.1295 14.8885 21.5524 14.5302 23.3693C13.3735 22.2331 12.6519 20.6567 12.6519 18.9114C12.6519 15.4669 15.4566 12.6622 18.9011 12.6622C22.3456 12.6622 25.1503 15.4669 25.1503 18.9114C25.1605 20.6567 24.4389 22.2331 23.2822 23.3693Z" fill="white"/>
<path d="M16.2295 3.4752L15.2877 2.53346C20.7846 2.85079 25.1606 7.42126 25.1606 13H25.9999C25.9999 6.95039 21.2299 1.99606 15.257 1.69409L16.2295 0.716534L15.6409 0.122833L13.6653 2.09842L15.6409 4.07401L16.2295 3.4752Z" fill="white"/>
<path d="M9.77047 22.5248L10.7122 23.4665C5.21536 23.1441 0.83937 18.5736 0.83937 13H0C0 19.0496 4.77008 24.0039 10.7429 24.3059L9.77047 25.2835L10.3642 25.8772L12.3346 23.9016L10.3591 21.926L9.77047 22.5248Z" fill="white"/>
</svg>
